<mxfile host="app.diagrams.net" agent="Mozilla/5.0 (Windows NT 10.0; Win64; x64; rv:132.0) Gecko/20100101 Firefox/132.0" version="24.8.4">
  <diagram name="Page-1" id="5B27-9a1TbTx9ybN5ohG">
    <mxGraphModel dx="1185" dy="632" grid="1" gridSize="10" guides="1" tooltips="1" connect="1" arrows="1" fold="1" page="1" pageScale="1" pageWidth="850" pageHeight="1100" math="0" shadow="0">
      <root>
        <mxCell id="0" />
        <mxCell id="1" parent="0" />
        <mxCell id="8bzjtN-8V0s7yi2wJTmo-3" value="" style="edgeStyle=orthogonalEdgeStyle;rounded=0;orthogonalLoop=1;jettySize=auto;html=1;" edge="1" parent="1" source="8bzjtN-8V0s7yi2wJTmo-1" target="8bzjtN-8V0s7yi2wJTmo-2">
          <mxGeometry relative="1" as="geometry" />
        </mxCell>
        <mxCell id="8bzjtN-8V0s7yi2wJTmo-1" value="&lt;div&gt;Import turtle&lt;/div&gt;&lt;div&gt;Import random&lt;br&gt;&lt;/div&gt;" style="rounded=0;whiteSpace=wrap;html=1;" vertex="1" parent="1">
          <mxGeometry x="365" y="40" width="120" height="60" as="geometry" />
        </mxCell>
        <mxCell id="8bzjtN-8V0s7yi2wJTmo-5" value="" style="edgeStyle=orthogonalEdgeStyle;rounded=0;orthogonalLoop=1;jettySize=auto;html=1;" edge="1" parent="1" source="8bzjtN-8V0s7yi2wJTmo-2" target="8bzjtN-8V0s7yi2wJTmo-4">
          <mxGeometry relative="1" as="geometry" />
        </mxCell>
        <mxCell id="8bzjtN-8V0s7yi2wJTmo-2" value="Set color mode to 255" style="rounded=0;whiteSpace=wrap;html=1;" vertex="1" parent="1">
          <mxGeometry x="365" y="180" width="120" height="60" as="geometry" />
        </mxCell>
        <mxCell id="8bzjtN-8V0s7yi2wJTmo-7" value="" style="edgeStyle=orthogonalEdgeStyle;rounded=0;orthogonalLoop=1;jettySize=auto;html=1;" edge="1" parent="1" source="8bzjtN-8V0s7yi2wJTmo-4" target="8bzjtN-8V0s7yi2wJTmo-6">
          <mxGeometry relative="1" as="geometry" />
        </mxCell>
        <mxCell id="8bzjtN-8V0s7yi2wJTmo-9" value="" style="edgeStyle=orthogonalEdgeStyle;rounded=0;orthogonalLoop=1;jettySize=auto;html=1;" edge="1" parent="1" source="8bzjtN-8V0s7yi2wJTmo-4" target="8bzjtN-8V0s7yi2wJTmo-8">
          <mxGeometry relative="1" as="geometry" />
        </mxCell>
        <mxCell id="8bzjtN-8V0s7yi2wJTmo-11" value="" style="edgeStyle=orthogonalEdgeStyle;rounded=0;orthogonalLoop=1;jettySize=auto;html=1;" edge="1" parent="1" source="8bzjtN-8V0s7yi2wJTmo-4" target="8bzjtN-8V0s7yi2wJTmo-10">
          <mxGeometry relative="1" as="geometry" />
        </mxCell>
        <mxCell id="8bzjtN-8V0s7yi2wJTmo-4" value="Create turtle object " style="whiteSpace=wrap;html=1;rounded=0;" vertex="1" parent="1">
          <mxGeometry x="365" y="320" width="120" height="60" as="geometry" />
        </mxCell>
        <mxCell id="8bzjtN-8V0s7yi2wJTmo-6" value="Set shape to turtle" style="ellipse;whiteSpace=wrap;html=1;rounded=0;" vertex="1" parent="1">
          <mxGeometry x="585" y="310" width="80" height="80" as="geometry" />
        </mxCell>
        <mxCell id="8bzjtN-8V0s7yi2wJTmo-8" value="Set color to green" style="ellipse;whiteSpace=wrap;html=1;rounded=0;" vertex="1" parent="1">
          <mxGeometry x="185" y="310" width="80" height="80" as="geometry" />
        </mxCell>
        <mxCell id="8bzjtN-8V0s7yi2wJTmo-13" value="" style="edgeStyle=orthogonalEdgeStyle;rounded=0;orthogonalLoop=1;jettySize=auto;html=1;" edge="1" parent="1" source="8bzjtN-8V0s7yi2wJTmo-10" target="8bzjtN-8V0s7yi2wJTmo-12">
          <mxGeometry relative="1" as="geometry" />
        </mxCell>
        <mxCell id="8bzjtN-8V0s7yi2wJTmo-10" value="Set speed to fastest" style="whiteSpace=wrap;html=1;rounded=0;" vertex="1" parent="1">
          <mxGeometry x="365" y="460" width="120" height="60" as="geometry" />
        </mxCell>
        <mxCell id="8bzjtN-8V0s7yi2wJTmo-15" value="" style="edgeStyle=orthogonalEdgeStyle;rounded=0;orthogonalLoop=1;jettySize=auto;html=1;" edge="1" parent="1" source="8bzjtN-8V0s7yi2wJTmo-12" target="8bzjtN-8V0s7yi2wJTmo-14">
          <mxGeometry relative="1" as="geometry" />
        </mxCell>
        <mxCell id="8bzjtN-8V0s7yi2wJTmo-21" value="" style="edgeStyle=orthogonalEdgeStyle;rounded=0;orthogonalLoop=1;jettySize=auto;html=1;" edge="1" parent="1" source="8bzjtN-8V0s7yi2wJTmo-12" target="8bzjtN-8V0s7yi2wJTmo-20">
          <mxGeometry relative="1" as="geometry" />
        </mxCell>
        <mxCell id="8bzjtN-8V0s7yi2wJTmo-12" value="Create for loop" style="rhombus;whiteSpace=wrap;html=1;rounded=0;" vertex="1" parent="1">
          <mxGeometry x="385" y="590" width="80" height="80" as="geometry" />
        </mxCell>
        <mxCell id="8bzjtN-8V0s7yi2wJTmo-14" value="Set range to 360" style="ellipse;whiteSpace=wrap;html=1;rounded=0;" vertex="1" parent="1">
          <mxGeometry x="225" y="590" width="80" height="80" as="geometry" />
        </mxCell>
        <mxCell id="8bzjtN-8V0s7yi2wJTmo-23" value="" style="edgeStyle=orthogonalEdgeStyle;rounded=0;orthogonalLoop=1;jettySize=auto;html=1;" edge="1" parent="1" source="8bzjtN-8V0s7yi2wJTmo-20" target="8bzjtN-8V0s7yi2wJTmo-22">
          <mxGeometry relative="1" as="geometry" />
        </mxCell>
        <mxCell id="8bzjtN-8V0s7yi2wJTmo-25" value="" style="edgeStyle=orthogonalEdgeStyle;rounded=0;orthogonalLoop=1;jettySize=auto;html=1;" edge="1" parent="1" source="8bzjtN-8V0s7yi2wJTmo-20" target="8bzjtN-8V0s7yi2wJTmo-24">
          <mxGeometry relative="1" as="geometry" />
        </mxCell>
        <mxCell id="8bzjtN-8V0s7yi2wJTmo-31" value="" style="edgeStyle=orthogonalEdgeStyle;rounded=0;orthogonalLoop=1;jettySize=auto;html=1;" edge="1" parent="1" source="8bzjtN-8V0s7yi2wJTmo-20" target="8bzjtN-8V0s7yi2wJTmo-30">
          <mxGeometry relative="1" as="geometry" />
        </mxCell>
        <mxCell id="8bzjtN-8V0s7yi2wJTmo-20" value="Set circle size to 150" style="ellipse;whiteSpace=wrap;html=1;rounded=0;" vertex="1" parent="1">
          <mxGeometry x="326" y="740" width="198" height="190" as="geometry" />
        </mxCell>
        <mxCell id="8bzjtN-8V0s7yi2wJTmo-22" value="Set right tilt to 5" style="shape=parallelogram;perimeter=parallelogramPerimeter;whiteSpace=wrap;html=1;fixedSize=1;rounded=0;" vertex="1" parent="1">
          <mxGeometry x="643" y="805" width="120" height="60" as="geometry" />
        </mxCell>
        <mxCell id="8bzjtN-8V0s7yi2wJTmo-29" value="" style="edgeStyle=orthogonalEdgeStyle;rounded=0;orthogonalLoop=1;jettySize=auto;html=1;" edge="1" parent="1" source="8bzjtN-8V0s7yi2wJTmo-24" target="8bzjtN-8V0s7yi2wJTmo-28">
          <mxGeometry relative="1" as="geometry" />
        </mxCell>
        <mxCell id="8bzjtN-8V0s7yi2wJTmo-24" value="Set pen color to random color" style="ellipse;whiteSpace=wrap;html=1;rounded=0;" vertex="1" parent="1">
          <mxGeometry x="107" y="795" width="80" height="80" as="geometry" />
        </mxCell>
        <mxCell id="8bzjtN-8V0s7yi2wJTmo-28" value="RGB colors" style="shape=parallelogram;perimeter=parallelogramPerimeter;whiteSpace=wrap;html=1;fixedSize=1;rounded=0;" vertex="1" parent="1">
          <mxGeometry x="87" y="965" width="120" height="60" as="geometry" />
        </mxCell>
        <mxCell id="8bzjtN-8V0s7yi2wJTmo-33" value="" style="edgeStyle=orthogonalEdgeStyle;rounded=0;orthogonalLoop=1;jettySize=auto;html=1;" edge="1" parent="1" source="8bzjtN-8V0s7yi2wJTmo-30" target="8bzjtN-8V0s7yi2wJTmo-32">
          <mxGeometry relative="1" as="geometry" />
        </mxCell>
        <mxCell id="8bzjtN-8V0s7yi2wJTmo-35" value="" style="edgeStyle=orthogonalEdgeStyle;rounded=0;orthogonalLoop=1;jettySize=auto;html=1;" edge="1" parent="1" source="8bzjtN-8V0s7yi2wJTmo-30" target="8bzjtN-8V0s7yi2wJTmo-34">
          <mxGeometry relative="1" as="geometry" />
        </mxCell>
        <mxCell id="8bzjtN-8V0s7yi2wJTmo-30" value="Screen object" style="whiteSpace=wrap;html=1;rounded=0;" vertex="1" parent="1">
          <mxGeometry x="365" y="1075" width="120" height="60" as="geometry" />
        </mxCell>
        <mxCell id="8bzjtN-8V0s7yi2wJTmo-32" value="Screen exit on click" style="ellipse;whiteSpace=wrap;html=1;rounded=0;" vertex="1" parent="1">
          <mxGeometry x="585" y="1065" width="80" height="80" as="geometry" />
        </mxCell>
        <mxCell id="8bzjtN-8V0s7yi2wJTmo-34" value="End :)" style="ellipse;shape=cloud;whiteSpace=wrap;html=1;rounded=0;" vertex="1" parent="1">
          <mxGeometry x="365" y="1205" width="120" height="80" as="geometry" />
        </mxCell>
      </root>
    </mxGraphModel>
  </diagram>
</mxfile>
